<svg width="32" height="29" viewBox="0 0 32 29" fill="none" xmlns="http://www.w3.org/2000/svg">
<path d="M15.993 17.4443C17.5675 17.4443 18.8439 16.1674 18.8439 14.5922C18.8439 13.017 17.5675 11.74 15.993 11.74C14.4185 11.74 13.1421 13.017 13.1421 14.5922C13.1421 16.1674 14.4185 17.4443 15.993 17.4443Z" fill="#61DAFB"/>
<path d="M31.9861 14.5921C31.9861 12.3521 29.3577 10.4043 25.269 9.23557C26.2981 5.1034 25.9365 1.84775 23.9896 0.734704C22.0426 -0.392252 19.0526 0.929487 15.993 3.87905C12.9335 0.915573 9.9435 -0.392252 7.99652 0.734704C6.38331 1.66688 5.78531 4.0321 6.32768 7.39905C6.42503 7.99731 6.5641 8.60949 6.71708 9.24949C2.62842 10.4182 0 12.366 0 14.606C0 16.846 2.62842 18.7799 6.71708 19.9625C6.5641 20.5886 6.42503 21.2147 6.32768 21.813C5.78531 25.1799 6.38331 27.5451 7.99652 28.4773C8.46936 28.7556 9.01173 28.8947 9.60973 28.8947C11.0282 28.8947 12.7388 28.1156 14.6023 26.5991C15.0613 26.2234 15.5341 25.7921 15.993 25.3469C16.452 25.7921 16.9248 26.2234 17.3837 26.5991C19.2473 28.1156 20.9578 28.8947 22.3764 28.8947C22.9744 28.8947 23.5167 28.7556 23.9896 28.4773C25.6028 27.5451 26.2008 25.1799 25.6723 21.813C25.575 21.2147 25.4359 20.6025 25.2829 19.9625C29.3716 18.7938 32 16.846 32 14.606L31.9861 14.5921ZM23.2942 1.93123C24.5458 2.6547 24.824 5.29818 23.92 8.88775C22.6128 8.58166 21.1804 8.35905 19.6645 8.21992C18.7884 6.98166 17.8705 5.8547 16.9665 4.86688C19.0804 2.82166 21.0413 1.70862 22.3903 1.70862C22.7379 1.70862 23.0439 1.77818 23.3081 1.93123H23.2942ZM20.4572 17.166C19.9565 18.0147 19.442 18.8495 18.9135 19.6286C17.9817 19.6982 17.0083 19.7399 16.007 19.7399C15.0056 19.7399 14.0322 19.6982 13.1004 19.6286C12.5719 18.8495 12.0435 18.0147 11.5567 17.166C11.0561 16.3034 10.611 15.4547 10.1938 14.5921C10.611 13.7295 11.0561 12.8808 11.5567 12.0182C12.0574 11.1417 12.5858 10.3208 13.1004 9.55557C14.0322 9.48601 15.0056 9.44427 16.007 9.44427C17.0083 9.44427 17.9817 9.48601 18.9135 9.55557C19.442 10.3208 19.9565 11.1417 20.4572 12.0182C20.9439 12.8669 21.4029 13.7295 21.8201 14.5921C21.4168 15.4408 20.9718 16.2895 20.4572 17.166ZM22.5432 16.2199C22.9326 17.1521 23.2664 18.0564 23.5445 18.9469C22.6545 19.1417 21.6949 19.3225 20.6797 19.4477C21.0135 18.933 21.3333 18.4043 21.6532 17.8617C21.9731 17.3191 22.2651 16.7625 22.5432 16.2199ZM15.993 23.3156C15.3672 22.6338 14.7414 21.8825 14.1295 21.0756C14.7414 21.1034 15.3533 21.1173 15.993 21.1173C16.6328 21.1173 17.2447 21.1034 17.8566 21.0756C17.2447 21.8825 16.6189 22.6199 15.993 23.3156ZM11.3064 19.4477C10.2912 19.3225 9.33159 19.1556 8.44155 18.9469C8.71969 18.0564 9.05345 17.1521 9.44285 16.2199C9.72099 16.7625 10.013 17.3191 10.3329 17.8617C10.6528 18.4043 10.9726 18.933 11.3064 19.4477ZM9.44285 12.9504C9.05345 12.0182 8.71969 11.1138 8.44155 10.2234C9.33159 10.0286 10.2912 9.84775 11.3064 9.72253C10.9726 10.2373 10.6528 10.766 10.3329 11.3086C10.013 11.8512 9.72099 12.3938 9.44285 12.9504ZM15.993 5.8547C16.605 6.52253 17.2308 7.27383 17.8566 8.0947C17.2447 8.06688 16.6328 8.05297 15.993 8.05297C15.3533 8.05297 14.7414 8.06688 14.1295 8.0947C14.7553 7.27383 15.3672 6.52253 15.993 5.8547ZM21.6532 11.3225C21.3333 10.7799 21.0135 10.2512 20.6797 9.73644C21.6949 9.86166 22.6545 10.0286 23.5445 10.2373C23.2803 11.1138 22.9465 12.0182 22.5432 12.9643C22.2651 12.4217 21.9591 11.8651 21.6532 11.3225ZM7.69057 7.17644C7.25945 4.4634 7.62103 2.55731 8.69187 1.94514C8.95611 1.7921 9.26206 1.72253 9.60973 1.72253C10.9587 1.72253 12.9196 2.83557 15.0335 4.88079C14.1156 5.86862 13.2116 6.99557 12.3355 8.23383C10.8196 8.37296 9.38722 8.59557 8.07996 8.90166C7.92699 8.31731 7.80183 7.73296 7.71838 7.19036L7.69057 7.17644ZM1.3907 14.5921C1.3907 13.1451 3.53238 11.5869 7.09257 10.5712C7.49587 11.8651 8.02434 13.2147 8.65015 14.5921C8.02434 15.9556 7.49587 17.3051 7.09257 18.613C3.54628 17.5973 1.3907 16.053 1.3907 14.5921ZM13.7262 25.486C11.5984 27.2112 9.76271 27.8512 8.69187 27.2391C7.62103 26.6269 7.25945 24.7069 7.69057 22.0077C7.77401 21.4512 7.91308 20.8808 8.05215 20.2964C9.35941 20.6025 10.7918 20.8251 12.3077 20.9643C13.1838 22.1886 14.0878 23.3295 15.0056 24.3312C14.5745 24.7486 14.1434 25.1521 13.7123 25.4999L13.7262 25.486ZM24.2955 22.0077C24.7266 24.7208 24.3651 26.6269 23.2942 27.2391C22.2234 27.8512 20.3877 27.2112 18.2599 25.486C17.8288 25.1382 17.3977 24.7347 16.9665 24.3173C17.8983 23.3156 18.8023 22.1886 19.6645 20.9643C21.1804 20.8251 22.6128 20.6025 23.92 20.2964C24.073 20.8808 24.1982 21.4651 24.2816 22.0077H24.2955ZM24.8935 18.5991C24.4902 17.3051 23.9618 15.9556 23.3359 14.5782C23.9757 13.1869 24.4902 11.8373 24.8935 10.5573C28.4537 11.573 30.5954 13.1173 30.5954 14.5782C30.5954 16.0391 28.4537 17.5834 24.8935 18.5991Z" fill="#61DAFB"/>
</svg>
